#!OML:ASF G:\ViconDB\ViconDB\414\test\team2\shane.ASF
:FULLY-SPECIFIED
:DEGREES
231
root 4.87408 16.8782 9.93957 -88.5342 82.403 -81.6499
lowerback 8.61984 1.06686 5.20967
upperback 4.36538 2.00748 2.17461
thorax -0.20495 1.13471 -0.847009
lowerneck -14.3367 -5.1003 -6.88664
upperneck 21.6403 -6.67593 6.22365
head 9.65902 -2.89444 2.47582
rclavicle -1.44367e-014 -4.53229e-014
rhumerus -22.556 -15.5806 -83.5255
rradius 20.0966
rwrist 53.472
rhand -30.5837 -15.4469
rfingers 7.12502
rthumb -3.88113 -45.3913
lclavicle -1.44367e-014 -4.53229e-014
lhumerus -31.6015 -15.1651 91.8625
lradius 20.1962
lwrist -19.2878
lhand -39.6005 7.93256
lfingers 7.12502
lthumb -12.5826 37.5336
rfemur 8.31775 -21.0173 16.1467
rtibia 20.0007
rfoot -18.7563 4.62876
rtoes -10.102
lfemur -10.4398 7.29267 -3.61697
ltibia 56.3086
lfoot -22.1927 -20.7331
ltoes -15.6384
232
root 4.98114 16.876 9.97677 -93.715 82.5081 -86.8497
lowerback 8.91238 1.15662 5.04247
upperback 4.14306 2.13806 2.15849
thorax -0.596122 1.18344 -0.794945
lowerneck -14.1551 -4.9288 -6.84927
upperneck 21.9248 -6.44274 6.18742
head 9.70492 -2.78164 2.49519
rclavicle -1.44367e-014 -2.28602e-014
rhumerus -21.7492 -13.4526 -84.7036
rradius 20.8271
rwrist 51.0553
rhand -30.7607 -15.5401
rfingers 7.12502
rthumb -4.05202 -45.4814
lclavicle -1.44367e-014 -2.28602e-014
lhumerus -32.7274 -14.5641 91.3871
lradius 19.8353
lwrist -19.5277
lhand -39.7739 7.84549
lfingers 7.12502
lthumb -12.7498 37.4362
rfemur 9.07045 -20.8823 16.1969
rtibia 19.4631
rfoot -18.7379 3.73598
rtoes -10.2716
lfemur -11.3565 7.35958 -3.87585
ltibia 54.7947
lfoot -22.7732 -20.4964
ltoes -16.1986
233
root 5.09915 16.8755 9.99924 -97.7301 83.2157 -90.6909
lowerback 8.96957 1.39457 4.57205
upperback 4.27552 2.41062 1.90503
thorax -0.486491 1.32 -0.817112
lowerneck -14.2432 -4.85883 -6.7725
upperneck 22.0061 -6.31163 6.00049
head 9.73135 -2.73136 2.43389
rclavicle -1.88721e-014 -4.96962e-015
rhumerus -20.6281 -11.4789 -85.769
rradius 21.5495
rwrist 49.3189
rhand -30.5992 -15.87
rfingers 7.12502
rthumb -3.8961 -45.8141
lclavicle -1.88721e-014 -4.96962e-015
lhumerus -33.206 -13.5642 90.504
lradius 19.3303
lwrist -20.6694
lhand -39.0893 8.04965
lfingers 7.12502
lthumb -12.0897 37.6804
rfemur 10.1373 -20.8105 15.2568
rtibia 18.833
rfoot -18.716 3.33701
rtoes -10.2914
lfemur -11.8773 7.52041 -4.96622
ltibia 53.0637
lfoot -23.3674 -19.9205
ltoes -15.7372
234
root 5.21508 16.884 10.0175 -99.6213 83.4027 -92.5587
lowerback 8.93696 1.70469 4.79782
upperback 4.33623 2.83133 1.6478
thorax -0.360403 1.53887 -1.24082
lowerneck -14.314 -4.80698 -6.45031
upperneck 22.0697 -6.26573 5.81236
head 9.74574 -2.70009 2.32013
rclavicle 3.77691e-014 1.78906e-014
rhumerus -19.6465 -9.7148 -86.7681
rradius 22.4704
rwrist 47.4894
rhand -30.7952 -15.6562
rfingers 7.12502
rthumb -4.08538 -45.5968
lclavicle 3.77691e-014 1.78906e-014
lhumerus -33.7686 -13.1335 89.7167
lradius 18.9466
lwrist -21.0101
lhand -39.1214 8.31637
lfingers 7.12502
lthumb -12.1208 37.9453
rfemur 10.9073 -20.5204 15.0536
rtibia 18.1745
rfoot -18.5325 2.85346
rtoes -10.642
lfemur -12.4779 7.68219 -5.40857
ltibia 51.1911
lfoot -23.5058 -19.4168
ltoes -15.636
235
root 5.32816 16.8901 10.0488 -106.709 83.2045 -99.7705
lowerback 8.99598 1.7416 4.77809
upperback 4.21868 2.88582 1.69456
thorax -0.515376 1.55938 -1.19205
lowerneck -14.2541 -4.74176 -6.59285
upperneck 22.15 -6.14693 5.84851
head 9.76078 -2.65065 2.3747
rclavicle -5.71506e-015 -1.59028e-015
rhumerus -18.8755 -7.27577 -87.6346
rradius 23.4887
rwrist 44.5643
rhand -30.8985 -15.612
rfingers 7.12502
rthumb -4.18514 -45.5507
lclavicle -5.71506e-015 -1.59028e-015
lhumerus -34.7326 -11.8576 88.8677
lradius 18.7787
lwrist -22.0554
lhand -38.9661 8.14842
lfingers 7.12502
lthumb -11.971 37.7861
rfemur 11.6956 -20.5099 15.3148
rtibia 17.3918
rfoot -18.3139 1.769
rtoes -12.0823
lfemur -13.3689 7.5688 -5.5599
ltibia 49.2094
lfoot -23.5612 -18.994
ltoes -14.9666
236
root 5.44992 16.8973 10.0634 -111.325 83.4643 -104.363
lowerback 8.90597 1.98201 4.72273
upperback 4.25622 3.18766 1.45171
thorax -0.399278 1.71386 -1.43168
lowerneck -14.2513 -4.75536 -6.73804
upperneck 22.233 -6.1798 6.0672
head 9.80458 -2.64996 2.4727
rclavicle 2.17918e-014 4.77083e-015
rhumerus -18.0306 -5.85115 -88.2581
rradius 24.3294
rwrist 43.3717
rhand -30.9719 -15.5347
rfingers 7.12502
rthumb -4.256 -45.472
lclavicle 2.17918e-014 4.77083e-015
lhumerus -35.5316 -12.2537 88.4556
lradius 18.7554
lwrist -21.2475
lhand -38.8893 7.99314
lfingers 7.12502
lthumb -11.8969 37.6351
rfemur 12.7251 -20.6134 14.7643
rtibia 16.4263
rfoot -18.0739 1.48837
rtoes -11.8305
lfemur -13.8774 7.84931 -6.32026
ltibia 47.2035
lfoot -23.9191 -17.9432
ltoes -15.409
237
root 5.56815 16.8998 10.0779 -116.623 83.4502 -109.681
lowerback 8.97756 2.10798 4.60798
upperback 4.17847 3.34872 1.37475
thorax -0.512107 1.78858 -1.46651
lowerneck -14.1353 -4.63596 -6.35475
upperneck 22.236 -5.97414 5.52377
head 9.73776 -2.58329 2.24771
rclavicle 2.15184e-014 -4.17448e-015
rhumerus -17.434 -3.78454 -88.8216
rradius 25.3778
rwrist 42.1145
rhand -31.2643 -16.095
rfingers 7.12502
rthumb -4.53835 -46.0264
lclavicle 2.15184e-014 -4.17448e-015
lhumerus -36.344 -11.6313 87.8468
lradius 18.5549
lwrist -21.272
lhand -38.8051 8.27914
lfingers 7.12502
lthumb -11.8157 37.9258
rfemur 13.7519 -20.6665 14.5048
rtibia 15.3436
rfoot -17.7394 1.04112
rtoes -11.9012
lfemur -14.4693 8.25171 -6.85955
ltibia 45.1885
lfoot -23.9356 -17.1819
ltoes -14.9918
238
root 5.69312 16.8977 10.0904 -119.678 83.1318 -112.741
lowerback 9.07508 2.27462 4.88412
upperback 3.99957 3.59876 1.33381
thorax -0.715861 1.90729 -1.69397
lowerneck -13.8169 -4.60035 -6.24625
upperneck 22.2694 -5.92935 5.41266
head 9.67905 -2.56601 2.203
rclavicle -1.6524e-014 1.72943e-014
rhumerus -17.0146 -2.29971 -89.3164
rradius 26.3207
rwrist 40.6021
rhand -31.3055 -16.1096
rfingers 7.12502
rthumb -4.57817 -46.0401
lclavicle -1.6524e-014 1.72943e-014
lhumerus -37.2848 -10.5618 86.7573
lradius 18.0578
lwrist -22.4895
lhand -39.2674 7.35132
lfingers 7.12502
lthumb -12.2615 36.9719
rfemur 14.799 -20.4613 14.7271
rtibia 14.1457
rfoot -17.1505 0.366847
rtoes -13.0661
lfemur -14.9832 8.8782 -7.03228
ltibia 43.1607
lfoot -24.1941 -16.3955
ltoes -15.2699
239
root 5.81154 16.8968 10.1043 -123.517 82.6215 -116.618
lowerback 9.1337 2.33258 5.13854
upperback 3.94492 3.70433 1.37206
thorax -0.78355 1.96025 -1.8097
lowerneck -13.9262 -4.50107 -6.07548
upperneck 22.3882 -5.77243 5.19959
head 9.71886 -2.49771 2.12009
rclavicle -3.36443e-014 -2.10712e-014
rhumerus -16.3013 -0.826188 -89.6589
rradius 27.182
rwrist 39.9253
rhand -31.2329 -16.0499
rfingers 7.12502
rthumb -4.508 -45.9819
lclavicle -3.36443e-014 -2.10712e-014
lhumerus -37.9186 -9.94318 86.0181
lradius 17.6876
lwrist -22.562
lhand -39.3276 7.2976
lfingers 7.12502
lthumb -12.3195 36.9147
rfemur 15.9024 -20.628 14.9654
rtibia 12.828
rfoot -16.5968 -0.11642
rtoes -13.3082
lfemur -15.6481 9.61936 -7.16234
ltibia 41.1583
lfoot -24.1361 -15.9717
ltoes -15.1971
